<svg viewBox="0 0 503 78" fill="none" xmlns="http://www.w3.org/2000/svg">
<path d="M501.059 52.271H469.713C469.231 52.271 468.818 51.8469 468.818 51.3521V2.54463C468.818 2.04984 468.404 1.62573 467.922 1.62573H436.576C436.093 1.62573 435.68 2.04984 435.68 2.54463V70.5782L402.818 1.87313C402.68 1.59039 402.405 1.41368 402.095 1.41368H359.14C358.83 1.41368 358.554 1.59039 358.416 1.90847L328 69.5886V35.2714H281.67C281.222 35.2714 280.843 35.6602 280.843 36.1196V47.4998C280.843 47.9592 281.222 48.348 281.67 48.348H292.279C292.968 48.348 293.381 49.2315 292.899 49.797C290.35 52.6597 285.252 55.5578 274.987 55.5578C257.695 55.5578 253.906 46.2628 253.906 39.0884V37.8867C253.906 30.5002 257.316 22.2302 274.918 22.2302C291.521 22.2302 294.622 29.44 295.379 32.0199C295.483 32.3734 295.793 32.6207 296.137 32.6207H327.484C327.931 32.6207 328.31 32.232 328.31 31.7725V31.2071C328.207 20.8165 322.213 0 277.088 0H273.575C226.934 0 220.837 22.1242 220.837 37.2859V40.3253C220.837 55.275 227.382 78 273.575 78H277.088C287.353 78 295.827 75.3493 302.475 71.497C303.027 71.179 303.681 71.6031 303.681 72.2746V75.7381C303.681 76.1975 304.06 76.5863 304.508 76.5863H356.591C356.901 76.5863 357.211 76.3743 357.314 76.0915L361.241 66.7259C361.379 66.4078 361.654 66.2311 361.964 66.2311H398.374C398.684 66.2311 398.96 66.4431 399.098 66.7259L403.094 76.1269C403.231 76.4449 403.507 76.6217 403.817 76.6217H436.162C436.162 76.6217 436.438 76.763 436.644 76.763H501.128C501.611 76.763 502.024 76.3389 502.024 75.8441V53.2605C502.024 52.7657 501.611 52.3416 501.128 52.3416L501.059 52.271ZM388.592 45.4146H371.299C370.714 45.4146 370.335 44.7784 370.576 44.1776L379.153 23.9619C379.429 23.2904 380.324 23.2904 380.634 23.9619L389.384 44.1776C389.625 44.7431 389.246 45.4146 388.661 45.4146H388.592Z" fill="white"/>
<path d="M218.797 2.62746V20.5106C218.797 21.0407 218.349 21.5001 217.832 21.5001H144.737C144.22 21.5001 143.772 21.9596 143.772 22.4897V27.8617C143.772 28.3919 144.22 28.8513 144.737 28.8513H217.04C217.557 28.8513 218.005 29.3108 218.005 29.8409V47.4412C218.005 47.9714 217.557 48.4308 217.04 48.4308H144.737C144.22 48.4308 143.772 48.8903 143.772 49.4204V55.6053C143.772 56.1354 144.22 56.5949 144.737 56.5949H218.315C218.831 56.5949 219.279 57.0543 219.279 57.5844V75.6796C219.279 76.2097 218.831 76.6692 218.315 76.6692H112.116C111.599 76.6692 111.152 76.2097 111.152 75.6796V2.59212C111.152 2.06199 111.599 1.60254 112.116 1.60254H217.832C218.349 1.60254 218.797 2.06199 218.797 2.59212V2.62746Z" fill="white"/>
<path d="M33.1031 2.55678V51.3289C33.1031 51.859 33.5164 52.2478 33.9987 52.2478H106.371C106.888 52.2478 107.266 52.6719 107.266 53.1667V75.7149C107.266 76.245 106.853 76.6338 106.371 76.6338H0.895609C0.378912 76.6338 0 76.2097 0 75.7149V2.52143C0 1.9913 0.413358 1.60254 0.895609 1.60254H32.2075C32.7242 1.60254 33.1031 2.02665 33.1031 2.52143V2.55678Z" fill="white"/>
</svg>
