<svg viewBox="0 0 60 54" fill="none" xmlns="http://www.w3.org/2000/svg">
<path fill-rule="evenodd" clip-rule="evenodd" d="M46.5 0C44.82 0 43.5 1.32 43.5 3V42C43.5 43.65 44.82 45 46.5 45C48.15 45 49.5 43.65 49.5 42V6H52.5V42C52.5 43.65 53.82 45 55.5 45C57.15 45 58.5 43.65 58.5 42V3C58.5 1.32 57.15 0 55.5 0H46.5ZM22.5 18C22.5 16.32 23.82 15 25.5 15H34.5C36.15 15 37.5 16.32 37.5 18V42C37.5 43.65 36.15 45 34.5 45C32.82 45 31.5 43.65 31.5 42V21H28.5V42C28.5 43.65 27.15 45 25.5 45C23.82 45 22.5 43.65 22.5 42V18ZM4.5 27C2.82 27 1.5 28.32 1.5 30V42C1.5 43.65 2.82 45 4.5 45C6.15 45 7.5 43.65 7.5 42V33H10.5V42C10.5 43.65 11.82 45 13.5 45C15.15 45 16.5 43.65 16.5 42V30C16.5 28.32 15.15 27 13.5 27H4.5ZM3 48C1.32 48 0 49.32 0 51C0 52.65 1.32 54 3 54H57C58.65 54 60 52.65 60 51C60 49.32 58.65 48 57 48H3Z" fill="#42E3B4"/>
</svg>
