<svg viewBox="0 0 57 57" fill="none" xmlns="http://www.w3.org/2000/svg">
<path fill-rule="evenodd" clip-rule="evenodd" d="M0 28.5C0 12.7594 12.7596 0 28.5 0C44.2403 0 57 12.7594 57 28.5C57 44.2405 44.2403 57 28.5 57C12.7596 57 0 44.2405 0 28.5ZM51.3 28.5C51.3 15.9286 41.0713 5.7 28.5 5.7C15.9286 5.7 5.7 15.9286 5.7 28.5C5.7 41.0713 15.9286 51.3 28.5 51.3C41.0713 51.3 51.3 41.0713 51.3 28.5ZM24.225 15.675C24.225 14.1018 25.5018 12.825 27.075 12.825C28.6482 12.825 29.925 14.1018 29.925 15.675V28.2492L41.2851 34.5591C42.6588 35.3229 43.1573 37.0585 42.3909 38.4351C41.6271 39.8088 39.8912 40.3075 38.5149 39.5409L25.6899 32.4159C24.7864 31.9143 24.225 30.9595 24.225 29.925V15.675Z" fill="#42E3B4"/>
</svg>
