<svg viewBox="0 0 69 51" fill="none" xmlns="http://www.w3.org/2000/svg">
<path fill-rule="evenodd" clip-rule="evenodd" d="M37.19 0.650065C35.4933 -0.0585174 33.6195 -0.191761 31.8435 0.269677C29.9889 0.751742 28.3457 1.85498 27.1749 3.40374L25.977 4.98845L25.9563 4.9692L17.1299 7.00786C15.2736 7.43689 13.8167 8.90931 13.38 10.8051C12.8328 13.1777 12.2919 15.552 11.7588 17.9281C10.743 22.4577 9.7503 26.9928 8.83492 31.545C8.45138 33.4517 9.17965 35.4095 10.6925 36.5887L26.9718 49.2808C29.8186 51.5004 33.8649 50.8515 35.9357 47.8431L36.2011 47.4577C38.3556 47.9984 40.7122 47.1336 42.0225 45.0875L42.606 44.176C44.7438 44.6849 47.0679 43.8172 48.3656 41.7906L48.9146 40.9333C50.8991 41.4601 53.0889 40.7812 54.4546 39.0064L56.2192 36.7139L56.3701 36.6616C58.7846 35.8248 60.1939 33.2587 59.6372 30.7126L55.2293 10.5503C54.8725 8.91941 53.7587 7.57046 52.2471 6.93911L37.19 0.650065ZM33.4004 12.0323C32.4416 11.1489 30.9411 11.2383 30.0938 12.2294L25.8057 17.2458C25.4376 17.7223 24.8306 17.9232 24.2653 17.7554C23.2673 17.4589 22.8767 16.2056 23.5181 15.3571L30.4884 6.13525C31.0869 5.34326 31.927 4.77923 32.8753 4.53285C33.7834 4.29687 34.7415 4.36501 35.6089 4.72733L49.3212 10.4547C50.39 10.9012 51.1778 11.8549 51.4299 13.0079L55.6431 32.2796L55.4521 32.3457L33.4004 12.0323ZM0.0519657 32.9842C-0.203138 34.1456 0.505592 35.2999 1.63848 35.5687C2.78247 35.8401 3.92346 35.1062 4.18098 33.9337L10.0421 7.2363C10.2972 6.07488 9.58845 4.92061 8.45527 4.65168C7.31157 4.38033 6.17058 5.11418 5.91308 6.28681L0.0519657 32.9842ZM67.3615 35.5687C66.2174 35.8401 65.0764 35.1062 64.8189 33.9337L58.9578 7.2363C58.7028 6.07488 59.4115 4.92061 60.5446 4.65168C61.6885 4.38033 62.8295 5.11418 63.087 6.28681L68.9481 32.9842C69.2031 34.1456 68.4944 35.2999 67.3615 35.5687ZM20.6278 10.7033L21.8757 10.415L20.1928 12.6412C17.6952 15.9456 19.2165 20.8278 23.1036 21.9821C25.3055 22.6361 27.67 21.8542 29.1037 19.9976L31.8989 16.3778L52.0558 35.0867C51.9849 35.1786 51.9104 35.2816 51.8318 35.3901C51.2621 36.1752 50.4861 37.2444 49.5292 36.4475L38.9392 26.9395C38.0439 26.1359 36.6789 26.2379 35.9071 27.1665C35.1525 28.0751 35.2496 29.4356 36.1257 30.2222L45.3754 38.5269C45.3643 38.5444 45.3532 38.5616 45.3421 38.5794C44.8414 39.3623 44.1541 40.4374 43.1277 39.6942L34.7075 32.3834C33.7991 31.5948 32.4359 31.72 31.6789 32.6616C30.9386 33.5833 31.0576 34.9423 31.9467 35.7141L39.0151 41.8509L39.0052 41.866C38.503 42.6506 37.7979 43.7519 36.7671 42.9784L30.4723 37.7974C29.5438 37.0333 28.1838 37.1952 27.4511 38.157C26.734 39.0983 26.888 40.4547 27.7969 41.2026L32.5909 45.1482C31.8785 46.1834 30.5468 46.573 29.5088 45.7642L15.384 34.7516C13.8618 33.565 13.1354 31.5914 13.5355 29.6764C14.2616 26.2015 15.1159 22.3205 15.8773 18.9264C16.2403 17.3076 16.5816 15.8024 16.8766 14.5094C17.3098 12.6094 18.7682 11.1328 20.6278 10.7033Z" fill="#42E3B4"/>
</svg>
