<svg viewBox="0 0 50 58" fill="none" xmlns="http://www.w3.org/2000/svg">
<path fill-rule="evenodd" clip-rule="evenodd" d="M42.7769 0.109375H7.22135C3.5408 0.109375 0.554688 3.09535 0.554688 6.77604V51.2205C0.554688 54.9012 3.5408 57.8872 7.22135 57.8872H42.7769C46.4574 57.8872 49.4436 54.9012 49.4436 51.2205V6.77604C49.4436 3.09535 46.4574 0.109375 42.7769 0.109375ZM7.22135 4.55382H42.7769C44.0031 4.55382 44.9991 5.55004 44.9991 6.77604V51.2205C44.9991 52.4465 44.0031 53.4427 42.7769 53.4427H7.22135C5.99522 53.4427 4.99913 52.4465 4.99913 51.2205V6.77604C4.99913 5.55004 5.99522 4.55382 7.22135 4.55382ZM38.3325 17.8872V13.4427H11.6658V17.8872H38.3325ZM38.3325 24.5538V28.9983H11.6658V24.5538H38.3325ZM20.5547 35.6649V40.1094H11.6658V35.6649H20.5547ZM25.1118 39.84C25.9796 38.9723 27.3865 38.9723 28.2547 39.84L29.8249 41.4107L34.5382 36.6958C35.4058 35.8278 36.8129 35.8276 37.6809 36.6954C38.5489 37.5629 38.5491 38.97 37.6814 39.838L31.3969 46.1247C30.5291 46.9927 29.1218 46.9929 28.254 46.1249L25.1118 42.9827C24.244 42.1149 24.244 40.7078 25.1118 39.84Z" fill="#42E3B4"/>
</svg>
