<svg width="32" height="32" viewBox="0 0 32 32" fill="none" xmlns="http://www.w3.org/2000/svg">
<path fill-rule="evenodd" clip-rule="evenodd" d="M6.66699 10.333C6.66699 9.78072 7.11471 9.33301 7.66699 9.33301H24.3337C24.8859 9.33301 25.3337 9.78072 25.3337 10.333V10.9997C25.3337 11.552 24.8859 11.9997 24.3337 11.9997H7.66699C7.11471 11.9997 6.66699 11.552 6.66699 10.9997V10.333ZM6.66699 15.6663C6.66699 15.1141 7.11471 14.6663 7.66699 14.6663H24.3337C24.8859 14.6663 25.3337 15.1141 25.3337 15.6663V16.333C25.3337 16.8853 24.8859 17.333 24.3337 17.333H7.66699C7.11471 17.333 6.66699 16.8853 6.66699 16.333V15.6663ZM7.66699 19.9997C7.11471 19.9997 6.66699 20.4474 6.66699 20.9997V21.6663C6.66699 22.2186 7.11471 22.6663 7.66699 22.6663H24.3337C24.8859 22.6663 25.3337 22.2186 25.3337 21.6663V20.9997C25.3337 20.4474 24.8859 19.9997 24.3337 19.9997H7.66699Z" fill="white"/>
</svg>
