<svg width="70" height="70" viewBox="0 0 70 70" fill="none" xmlns="http://www.w3.org/2000/svg">
<rect width="70" height="70" rx="16" fill="white"/>
<path fill-rule="evenodd" clip-rule="evenodd" d="M36.0284 14.6263C35.7645 14.3346 35.3895 14.168 35.0007 14.168C34.5979 14.168 34.2229 14.3346 33.959 14.6263L32.459 16.293C29.209 19.8902 24.6395 21.9457 19.8618 21.9457C18.9868 21.9457 18.334 22.6541 18.334 23.4735V33.8069C18.334 43.9457 24.9034 52.9041 34.5007 55.7513C34.8201 55.8485 35.1673 55.8485 35.4868 55.7513C45.084 52.9041 51.6673 43.9457 51.6673 33.8069V23.4735C51.6673 22.6541 51.0006 21.9457 50.1256 21.9457C45.3479 21.9457 40.7784 19.8902 37.5284 16.293L36.0284 14.6263ZM34.5284 18.1541L35.0007 17.6263L35.459 18.1541C38.9451 22.0152 43.7645 24.3485 48.8895 24.6819V33.8069C48.8895 42.6402 43.2229 50.418 35.0007 53.0013C26.7645 50.418 21.1118 42.6402 21.1118 33.8069V24.6819C26.2229 24.3485 31.0423 22.0152 34.5284 18.1541ZM42.9173 33.1957C43.459 32.6541 43.459 31.7791 42.9173 31.2374C42.3757 30.6957 41.5007 30.6957 40.959 31.2374L33.6118 38.5846L30.4173 35.4041C29.8757 34.8624 29.0007 34.8624 28.459 35.4041C27.9173 35.9457 27.9173 36.8207 28.459 37.3624L32.6257 41.5291C33.1673 42.0707 34.0423 42.0707 34.584 41.5291L42.9173 33.1957Z" fill="#0D0D0E"/>
</svg>
