<svg width="70" height="70" viewBox="0 0 70 70" fill="none" xmlns="http://www.w3.org/2000/svg">
<rect width="70" height="70" rx="16" fill="white"/>
<g clip-path="url(#clip0_2576_11344)">
<mask id="mask0_2576_11344" style="mask-type:luminance" maskUnits="userSpaceOnUse" x="10" y="10" width="50" height="50">
<path d="M10 10H60V60H10V10Z" fill="white"/>
</mask>
<g mask="url(#mask0_2576_11344)">
<path fill-rule="evenodd" clip-rule="evenodd" d="M46.1107 16.9453H23.8885C21.5935 16.9453 19.7218 18.8171 19.7218 21.112V46.112C19.7218 48.4069 21.5935 50.2787 23.8885 50.2787H28.0555L28.0552 53.0565C28.0552 54.082 29.118 54.7351 30.0181 54.3216L30.1586 54.2474L36.7735 50.2787H46.1107C48.3246 50.2787 50.1432 48.5384 50.2702 46.3562L50.2773 46.112V21.112C50.2773 18.8168 48.4066 16.9453 46.1107 16.9453ZM23.8885 19.7231H46.1107C46.8723 19.7231 47.4996 20.3507 47.4996 21.112V46.112C47.4996 46.8733 46.8723 47.5009 46.1107 47.5009H36.3885C36.1367 47.5009 35.8896 47.5692 35.6738 47.6988L30.8332 50.6037L30.833 48.8898C30.833 48.1774 30.2968 47.5905 29.6059 47.5102L29.4441 47.5009H23.8885C23.1277 47.5009 22.4996 46.8727 22.4996 46.112V21.112C22.4996 20.3512 23.1277 19.7231 23.8885 19.7231ZM41.8898 25.2279C41.1225 25.2279 40.5009 25.8497 40.5009 26.6167C40.5009 27.3291 41.037 27.916 41.7277 27.9963L41.8898 28.0056H41.9759C42.743 28.0056 43.3648 27.3838 43.3648 26.6167C43.3648 25.9045 42.8285 25.3174 42.1378 25.2372L41.9759 25.2279H41.8898ZM28.0224 25.2279C27.2555 25.2279 26.6335 25.8497 26.6335 26.6167C26.6335 27.3291 27.1698 27.916 27.8605 27.9963L28.0224 28.0056H37.7446C38.5118 28.0056 39.1335 27.3838 39.1335 26.6167C39.1335 25.9045 38.5974 25.3174 37.9067 25.2372L37.7446 25.2279H28.0224ZM41.8898 32.0929C41.1225 32.0929 40.5009 32.7147 40.5009 33.4817C40.5009 34.194 41.037 34.781 41.7277 34.8613L41.8898 34.8706H41.9759C42.743 34.8706 43.3648 34.2488 43.3648 33.4817C43.3648 32.7695 42.8285 32.1824 42.1378 32.1022L41.9759 32.0929H41.8898ZM28.0224 32.1723C27.2555 32.1723 26.6335 32.7941 26.6335 33.5612C26.6335 34.2736 27.1698 34.8605 27.8605 34.9408L28.0224 34.9501H37.7446C38.5118 34.9501 39.1335 34.3283 39.1335 33.5612C39.1335 32.849 38.5974 32.2619 37.9067 32.1816L37.7446 32.1723H28.0224ZM41.8898 38.958C41.1225 38.958 40.5009 39.5798 40.5009 40.3469C40.5009 41.0591 41.037 41.6462 41.7277 41.7265L41.8898 41.7358H41.9759C42.743 41.7358 43.3648 41.114 43.3648 40.3469C43.3648 39.6347 42.8285 39.0476 42.1378 38.9673L41.9759 38.958H41.8898ZM28.0224 39.1167C27.2555 39.1167 26.6335 39.7386 26.6335 40.5056C26.6335 41.218 27.1698 41.8049 27.8605 41.8852L28.0224 41.8945H37.7446C38.5118 41.8945 39.1335 41.2727 39.1335 40.5056C39.1335 39.7934 38.5974 39.2063 37.9067 39.1261L37.7446 39.1167H28.0224Z" fill="#0D0D0E"/>
</g>
</g>
<defs>
<clipPath id="clip0_2576_11344">
<rect width="50" height="50" fill="white" transform="matrix(-1 0 0 1 60 10)"/>
</clipPath>
</defs>
</svg>
