<svg width="197" height="36" viewBox="0 0 197 36" fill="none" xmlns="http://www.w3.org/2000/svg">
<path d="M0.56 1.496H9.92C14.016 1.496 17.072 2.904 19.088 5.72C21.104 8.536 22.112 12.712 22.112 18.248C22.112 23.784 21.104 27.96 19.088 30.776C17.072 33.592 14.016 35 9.92 35H0.56V1.496ZM9.728 31.496C12.416 31.496 14.432 30.568 15.776 28.712C17.152 26.856 17.84 24.232 17.84 20.84V15.656C17.84 12.264 17.152 9.64 15.776 7.784C14.432 5.928 12.416 5 9.728 5H4.592V31.496H9.728ZM29.1013 35V1.496H49.7413V5H33.1333V16.28H49.1653V19.784H33.1333V31.496H49.7413V35H29.1013ZM67.9625 35.576C65.9145 35.576 64.1545 35.192 62.6825 34.424C61.2105 33.624 59.9945 32.488 59.0345 31.016C58.0745 29.544 57.3705 27.736 56.9225 25.592C56.4745 23.448 56.2505 21 56.2505 18.248C56.2505 15.528 56.4745 13.096 56.9225 10.952C57.3705 8.776 58.0745 6.952 59.0345 5.48C59.9945 4.008 61.2105 2.888 62.6825 2.12C64.1545 1.32 65.9145 0.919998 67.9625 0.919998C70.0105 0.919998 71.7705 1.32 73.2425 2.12C74.7145 2.888 75.9305 4.008 76.8905 5.48C77.8505 6.952 78.5545 8.776 79.0025 10.952C79.4505 13.096 79.6745 15.528 79.6745 18.248C79.6745 21 79.4505 23.448 79.0025 25.592C78.5545 27.736 77.8505 29.544 76.8905 31.016C75.9305 32.488 74.7145 33.624 73.2425 34.424C71.7705 35.192 70.0105 35.576 67.9625 35.576ZM67.9625 32.072C69.3065 32.072 70.4425 31.816 71.3705 31.304C72.2985 30.76 73.0665 30.008 73.6745 29.048C74.2825 28.088 74.7145 26.936 74.9705 25.592C75.2585 24.216 75.4025 22.68 75.4025 20.984V15.512C75.4025 13.848 75.2585 12.328 74.9705 10.952C74.7145 9.576 74.2825 8.408 73.6745 7.448C73.0665 6.488 72.2985 5.752 71.3705 5.24C70.4425 4.696 69.3065 4.424 67.9625 4.424C66.6185 4.424 65.4825 4.696 64.5545 5.24C63.6265 5.752 62.8585 6.488 62.2505 7.448C61.6425 8.408 61.1945 9.576 60.9065 10.952C60.6505 12.328 60.5225 13.848 60.5225 15.512V20.984C60.5225 22.68 60.6505 24.216 60.9065 25.592C61.1945 26.936 61.6425 28.088 62.2505 29.048C62.8585 30.008 63.6265 30.76 64.5545 31.304C65.4825 31.816 66.6185 32.072 67.9625 32.072ZM90.6958 35H86.6638V1.496H98.8558C101.96 1.496 104.328 2.344 105.96 4.04C107.592 5.736 108.408 8.104 108.408 11.144C108.408 13.864 107.704 16.04 106.296 17.672C104.888 19.304 102.84 20.248 100.152 20.504L108.696 35H104.184L96.0238 20.696H90.6958V35ZM98.7598 17.288C100.456 17.288 101.768 16.872 102.696 16.04C103.656 15.176 104.136 13.96 104.136 12.392V9.896C104.136 8.328 103.656 7.128 102.696 6.296C101.768 5.432 100.456 5 98.7598 5H90.6958V17.288H98.7598ZM114.821 1.496H126.581C129.877 1.496 132.389 2.296 134.117 3.896C135.877 5.496 136.757 7.672 136.757 10.424C136.757 12.344 136.277 13.88 135.317 15.032C134.389 16.152 133.045 16.968 131.285 17.48V17.768C133.365 18.28 134.965 19.176 136.085 20.456C137.237 21.736 137.813 23.512 137.813 25.784C137.813 28.6 136.917 30.84 135.125 32.504C133.365 34.168 130.885 35 127.685 35H114.821V1.496ZM125.477 29.96C127.205 29.96 128.469 29.672 129.269 29.096C130.069 28.52 130.469 27.464 130.469 25.928V24.536C130.469 23 130.069 21.944 129.269 21.368C128.469 20.792 127.205 20.504 125.477 20.504H121.829V29.96H125.477ZM124.565 15.704C126.261 15.704 127.493 15.432 128.261 14.888C129.029 14.312 129.413 13.288 129.413 11.816V10.376C129.413 8.904 129.029 7.896 128.261 7.352C127.493 6.808 126.261 6.536 124.565 6.536H121.829V15.704H124.565ZM154.306 35.576C149.826 35.576 146.514 34.056 144.37 31.016C142.258 27.976 141.202 23.72 141.202 18.248C141.202 12.776 142.258 8.52 144.37 5.48C146.514 2.44 149.826 0.919998 154.306 0.919998C158.786 0.919998 162.082 2.44 164.194 5.48C166.338 8.52 167.41 12.776 167.41 18.248C167.41 23.72 166.338 27.976 164.194 31.016C162.082 34.056 158.786 35.576 154.306 35.576ZM154.306 29.768C156.354 29.768 157.762 29.016 158.53 27.512C159.33 25.976 159.73 23.848 159.73 21.128V15.32C159.73 12.632 159.33 10.536 158.53 9.032C157.762 7.496 156.354 6.728 154.306 6.728C152.258 6.728 150.834 7.496 150.034 9.032C149.266 10.536 148.882 12.632 148.882 15.32V21.176C148.882 23.864 149.266 25.976 150.034 27.512C150.834 29.016 152.258 29.768 154.306 29.768ZM186.688 7.4V35H179.488V7.4H169.84V1.496H196.336V7.4H186.688Z" fill="white"/>
</svg>
