<svg width="40" height="40" viewBox="0 0 40 40" fill="none" xmlns="http://www.w3.org/2000/svg">
<circle cx="20" cy="20" r="20" fill="white"/>
<path d="M26.2245 12.7826C26.2245 12.7826 28.0592 12.0672 27.9063 13.8047C27.8553 14.5201 27.3967 17.024 27.0399 19.7324L25.8168 27.7553C25.8168 27.7553 25.7149 28.9307 24.7975 29.1351C23.8801 29.3395 22.5041 28.4197 22.2492 28.2152C22.0454 28.062 18.4269 25.7624 17.1528 24.6382C16.796 24.3315 16.3883 23.7183 17.2037 23.0029L22.555 17.8928C23.1666 17.2796 23.7782 15.8487 21.2299 17.5862L14.0949 22.4408C14.0949 22.4408 13.2795 22.9518 11.7505 22.4919L8.43781 21.4699C8.43781 21.4699 7.21466 20.7034 9.30421 19.9368C14.4007 17.535 20.6694 15.0822 26.2245 12.7826Z" fill="black"/>
</svg>
