<svg viewBox="0 0 64 48" fill="none" xmlns="http://www.w3.org/2000/svg">
<path fill-rule="evenodd" clip-rule="evenodd" d="M31.0057 1.01203L2.11689 15.4565C0.479266 16.2754 0.479266 18.6127 2.11689 19.4316L11.9997 24.3729V36.3329C11.9997 42.6972 21.2977 47.444 31.9997 47.444C42.7017 47.444 51.9997 42.6972 51.9997 36.3329V24.3729L61.8826 19.4316C63.5202 18.6127 63.5202 16.2754 61.8826 15.4565L32.9937 1.01203C32.3677 0.699116 31.6317 0.699116 31.0057 1.01203ZM55.9195 17.444L31.9997 5.48405L8.07989 17.444L31.9997 29.404L55.9195 17.444ZM56.4442 27.444V38.5552C56.4442 39.7825 57.4393 40.7774 58.6664 40.7774C59.8935 40.7774 60.8886 39.7825 60.8886 38.5552V27.444C60.8886 26.2167 59.8935 25.2218 58.6664 25.2218C57.4393 25.2218 56.4442 26.2167 56.4442 27.444ZM16.4442 36.3329V26.5952L31.0057 33.876C31.6317 34.1889 32.3677 34.1889 32.9937 33.876L47.5553 26.5952V36.3329C47.5553 39.4316 40.5664 42.9996 31.9997 42.9996C23.433 42.9996 16.4442 39.4316 16.4442 36.3329Z" fill="#42E3B4"/>
</svg>
