<svg viewBox="0 0 56 63" fill="none" xmlns="http://www.w3.org/2000/svg">
<path fill-rule="evenodd" clip-rule="evenodd" d="M55.4247 6.38433C55.2218 2.88444 52.3189 0.109375 48.7691 0.109375H13.2135L12.8221 0.120642C9.32303 0.323398 6.54688 3.22529 6.54688 6.77604V30.036H10.9913V6.77604L11.0063 6.51684C11.1348 5.41171 12.0742 4.55382 13.2135 4.55382H48.7691L49.0285 4.56873C50.1333 4.69718 50.9913 5.63644 50.9913 6.77604V51.2205L50.9765 51.4794C50.8478 52.5838 49.9076 53.4427 48.7691 53.4427H32.5449V57.8872H48.7691L49.1609 57.8758C52.6593 57.6729 55.4358 54.7696 55.4358 51.2205V6.77604L55.4247 6.38433ZM44.3247 13.442V17.8865H17.658V13.442H44.3247ZM44.3247 28.9976V24.5532H17.658V28.9976H44.3247ZM44.3865 35.726V40.1705H33.2753V35.726H44.3865Z" fill="#42E3B4"/>
<path fill-rule="evenodd" clip-rule="evenodd" d="M0 47.5C0 39.4744 7.47446 32 15.5 32C23.5255 32 31 39.4744 31 47.5C31 55.5256 23.5255 63 15.5 63C7.47446 63 0 55.5256 0 47.5ZM27.125 47.5C27.125 41.0903 21.9097 35.875 15.5 35.875C9.09025 35.875 3.875 41.0903 3.875 47.5C3.875 53.9097 9.09025 59.125 15.5 59.125C21.9097 59.125 27.125 53.9097 27.125 47.5ZM12.5938 40.9609C12.5938 40.1588 13.7291 39.2656 14.5312 39.2656C15.3334 39.2656 16.2266 40.1588 16.2266 40.9609V47.3721L22.0187 50.5893C22.7191 50.9788 22.9733 51.8637 22.5825 52.5656C22.1931 53.266 21.0455 53.7034 20.3438 53.3125L14.0469 49.9219C13.5862 49.6661 12.5938 48.9962 12.5938 48.4688V40.9609Z" fill="#42E3B4"/>
</svg>
