<?xml version="1.0" encoding="UTF-8"?> <svg xmlns="http://www.w3.org/2000/svg" xmlns:xlink="http://www.w3.org/1999/xlink" id="erAzE5BkGQX1" viewBox="0 0 1100 810" shape-rendering="geometricPrecision" text-rendering="geometricPrecision"><style> #erAzE5BkGQX260_to {animation: erAzE5BkGQX260_to__to 6500ms linear infinite normal forwards}@keyframes erAzE5BkGQX260_to__to { 0% {transform: translate(624.325905px,327.370193px)} 4.615385% {transform: translate(624.325905px,337.370193px)} 30.769231% {transform: translate(624.325905px,337.370193px)} 35.384615% {transform: translate(624.325905px,327.370193px)} 46.153846% {transform: translate(624.325905px,327.370193px)} 50.769231% {transform: translate(624.325905px,337.370193px)} 67.692308% {transform: translate(624.325905px,337.370193px)} 72.307692% {transform: translate(624.325905px,327.370193px)} 100% {transform: translate(624.325905px,327.370193px)}} #erAzE5BkGQX260 {animation: erAzE5BkGQX260_c_o 6500ms linear infinite normal forwards}@keyframes erAzE5BkGQX260_c_o { 0% {opacity: 0} 4.615385% {opacity: 1} 30.769231% {opacity: 1} 35.384615% {opacity: 0} 46.153846% {opacity: 0} 50.769231% {opacity: 1} 67.692308% {opacity: 1} 72.307692% {opacity: 0} 100% {opacity: 0}} #erAzE5BkGQX265_to {animation: erAzE5BkGQX265_to__to 6500ms linear infinite normal forwards}@keyframes erAzE5BkGQX265_to__to { 0% {offset-distance: 0%} 30.769231% {offset-distance: 100%} 100% {offset-distance: 100%}} #erAzE5BkGQX265_tr {animation: erAzE5BkGQX265_tr__tr 6500ms linear infinite normal forwards}@keyframes erAzE5BkGQX265_tr__tr { 0% {transform: rotate(32.036023deg)} 32.307692% {transform: rotate(-27.963974deg)} 100% {transform: rotate(-27.963974deg)}} #erAzE5BkGQX265 {animation: erAzE5BkGQX265_c_o 6500ms linear infinite normal forwards}@keyframes erAzE5BkGQX265_c_o { 0% {opacity: 0} 1.538462% {opacity: 1} 27.692308% {opacity: 1} 30.769231% {opacity: 0} 100% {opacity: 0}} #erAzE5BkGQX270_to {animation: erAzE5BkGQX270_to__to 6500ms linear infinite normal forwards}@keyframes erAzE5BkGQX270_to__to { 0% {transform: translate(369.303653px,564.509725px)} 18.461538% {transform: translate(369.303653px,564.509725px)} 21.538462% {transform: translate(369.303653px,574.509725px)} 29.230769% {transform: translate(369.303653px,574.509725px)} 32.307692% {transform: translate(369.303653px,564.509725px)} 100% {transform: translate(369.303653px,564.509725px)}} #erAzE5BkGQX270 {animation: erAzE5BkGQX270_c_o 6500ms linear infinite normal forwards}@keyframes erAzE5BkGQX270_c_o { 0% {opacity: 0} 18.461538% {opacity: 0} 21.538462% {opacity: 1} 29.230769% {opacity: 1} 32.307692% {opacity: 0} 100% {opacity: 0}} #erAzE5BkGQX275_to {animation: erAzE5BkGQX275_to__to 6500ms linear infinite normal forwards}@keyframes erAzE5BkGQX275_to__to { 0% {offset-distance: 0%} 55.384615% {offset-distance: 0%} 84.615385% {offset-distance: 100%} 100% {offset-distance: 100%}} #erAzE5BkGQX275_tr {animation: erAzE5BkGQX275_tr__tr 6500ms linear infinite normal forwards}@keyframes erAzE5BkGQX275_tr__tr { 0% {transform: rotate(-28.3758deg)} 55.384615% {transform: rotate(-28.3758deg)} 84.615385% {transform: rotate(6.261406deg)} 100% {transform: rotate(6.261406deg)}} #erAzE5BkGQX275 {animation: erAzE5BkGQX275_c_o 6500ms linear infinite normal forwards}@keyframes erAzE5BkGQX275_c_o { 0% {opacity: 0} 55.384615% {opacity: 0} 60% {opacity: 1} 80% {opacity: 1} 84.615385% {opacity: 0} 100% {opacity: 0}} #erAzE5BkGQX286_to {animation: erAzE5BkGQX286_to__to 6500ms linear infinite normal forwards}@keyframes erAzE5BkGQX286_to__to { 0% {transform: translate(916.692497px,269.306619px)} 58.461538% {transform: translate(916.692497px,269.306619px)} 63.076923% {transform: translate(916.692497px,279.306619px)} 81.538462% {transform: translate(916.692497px,279.306619px)} 86.153846% {transform: translate(916.692497px,269.306619px)} 100% {transform: translate(916.692497px,269.306619px)}} #erAzE5BkGQX286 {animation: erAzE5BkGQX286_c_o 6500ms linear infinite normal forwards}@keyframes erAzE5BkGQX286_c_o { 0% {opacity: 0} 58.461538% {opacity: 0} 63.076923% {opacity: 0.98} 81.538462% {opacity: 0.98} 86.153846% {opacity: 0} 100% {opacity: 0}} #erAzE5BkGQX291_to {animation: erAzE5BkGQX291_to__to 6500ms linear infinite normal forwards}@keyframes erAzE5BkGQX291_to__to { 0% {offset-distance: 0%} 61.538462% {offset-distance: 0%} 90.769231% {offset-distance: 100%} 100% {offset-distance: 100%}} #erAzE5BkGQX291_tr {animation: erAzE5BkGQX291_tr__tr 6500ms linear infinite normal forwards}@keyframes erAzE5BkGQX291_tr__tr { 0% {transform: rotate(32.646825deg)} 61.538462% {transform: rotate(32.646825deg)} 90.769231% {transform: rotate(-78.034663deg)} 100% {transform: rotate(-78.034663deg)}} #erAzE5BkGQX291 {animation: erAzE5BkGQX291_c_o 6500ms linear infinite normal forwards}@keyframes erAzE5BkGQX291_c_o { 0% {opacity: 0} 61.538462% {opacity: 0} 64.615385% {opacity: 1} 90.769231% {opacity: 1} 93.846154% {opacity: 0} 100% {opacity: 0}} #erAzE5BkGQX304_to {animation: erAzE5BkGQX304_to__to 6500ms linear infinite normal forwards}@keyframes erAzE5BkGQX304_to__to { 0% {transform: translate(683.987277px,474.799441px)} 63.076923% {transform: translate(683.987277px,474.799441px)} 67.692308% {transform: translate(683.987277px,484.799441px)} 80% {transform: translate(683.987277px,484.799441px)} 84.615385% {transform: translate(683.987277px,474.799441px)} 100% {transform: translate(683.987277px,474.799441px)}} #erAzE5BkGQX304 {animation: erAzE5BkGQX304_c_o 6500ms linear infinite normal forwards}@keyframes erAzE5BkGQX304_c_o { 0% {opacity: 0} 63.076923% {opacity: 0} 67.692308% {opacity: 1} 80% {opacity: 1} 84.615385% {opacity: 0} 100% {opacity: 0}} #erAzE5BkGQX309_to {animation: erAzE5BkGQX309_to__to 6500ms linear infinite normal forwards}@keyframes erAzE5BkGQX309_to__to { 0% {transform: translate(920.439761px,402.602028px)} 78.461538% {transform: translate(920.439761px,402.602028px)} 81.538462% {transform: translate(920.439761px,412.602028px)} 96.923077% {transform: translate(920.439761px,412.602028px)} 100% {transform: translate(920.439761px,402.602028px)}} #erAzE5BkGQX309 {animation: erAzE5BkGQX309_c_o 6500ms linear infinite normal forwards}@keyframes erAzE5BkGQX309_c_o { 0% {opacity: 0} 78.461538% {opacity: 0} 81.538462% {opacity: 1} 96.923077% {opacity: 1} 100% {opacity: 0}} #erAzE5BkGQX314 {animation: erAzE5BkGQX314_c_o 6500ms linear infinite normal forwards}@keyframes erAzE5BkGQX314_c_o { 0% {opacity: 0} 15.384615% {opacity: 1} 20% {opacity: 1} 23.076923% {opacity: 0} 100% {opacity: 0}} #erAzE5BkGQX315 {animation: erAzE5BkGQX315_c_o 6500ms linear infinite normal forwards}@keyframes erAzE5BkGQX315_c_o { 0% {opacity: 0} 56.923077% {opacity: 0} 78.461538% {opacity: 1} 81.538462% {opacity: 1} 86.153846% {opacity: 0} 100% {opacity: 0}} #erAzE5BkGQX316 {animation: erAzE5BkGQX316_c_o 6500ms linear infinite normal forwards}@keyframes erAzE5BkGQX316_c_o { 0% {opacity: 0} 61.538462% {opacity: 0} 84.615385% {opacity: 1} 89.230769% {opacity: 1} 92.307692% {opacity: 0} 100% {opacity: 0}} #erAzE5BkGQX323_tr {animation: erAzE5BkGQX323_tr__tr 6500ms linear infinite normal forwards}@keyframes erAzE5BkGQX323_tr__tr { 0% {transform: translate(135.33781px,207.03926px) rotate(720deg);animation-timing-function: cubic-bezier(0.415,0.08,0.115,0.955)} 100% {transform: translate(135.33781px,207.03926px) rotate(112.207792deg)}} #erAzE5BkGQX324_tr {animation: erAzE5BkGQX324_tr__tr 6500ms linear infinite normal forwards}@keyframes erAzE5BkGQX324_tr__tr { 0% {transform: translate(11.12px,29.9px) rotate(-720deg);animation-timing-function: cubic-bezier(0.415,0.08,0.115,0.955)} 100% {transform: translate(11.12px,29.9px) rotate(-112.207792deg)}} </style><defs><linearGradient id="erAzE5BkGQX317-fill" x1="0.5" y1="0" x2="0.5" y2="1" spreadMethod="pad" gradientUnits="objectBoundingBox" gradientTransform="translate(0 0)"><stop id="erAzE5BkGQX317-fill-0" offset="0%" stop-color="rgba(255,255,255,0)"></stop><stop id="erAzE5BkGQX317-fill-1" offset="100%" stop-color="#010022"></stop></linearGradient></defs><g id="erAzE5BkGQX260_to" transform="translate(624.325905,327.370193)"><g id="erAzE5BkGQX260" transform="translate(-20.5,-28)" opacity="0"><path d="M20.5,56C31.8218,56,41,46.8218,41,35.5s-9.1782-20.5-20.5-20.5-20.5,9.1782-20.5,20.5s9.17816,20.5,20.5,20.5Z" fill="#20286d" fill-opacity="0.1"></path><path d="M20.5,41c3.0376,0,5.5-2.4624,5.5-5.5s-2.4624-5.5-5.5-5.5-5.5,2.4624-5.5,5.5s2.4624,5.5,5.5,5.5Z" fill="#20286d" fill-opacity="0.4"></path><path d="M20.6219,32.25l-9.31-16.125C7.17392,8.958,12.3459,0,20.6219,0c8.275,0,13.447,8.958,9.309,16.125L20.6219,32.25Z" fill="#20286d"></path><path d="M20.6211,16.25c3.0376,0,5.5-2.4624,5.5-5.5s-2.4624-5.5-5.5-5.5-5.5,2.46243-5.5,5.5s2.4624,5.5,5.5,5.5Z" fill="#fff"></path></g></g><g id="erAzE5BkGQX265_to" style="offset-path:path('M610.826072,355.370193C504.222406,369.694937,405.652197,468.288735,382.350833,553.154057');offset-rotate:0deg"><g id="erAzE5BkGQX265_tr" transform="rotate(32.036023)"><g id="erAzE5BkGQX265" transform="translate(-7.999832,-7.999789)" opacity="0"><path d="M12.5703,2.83528l.8817-.88157c.1856-.18567.4773-.18567.6629,0c.179.17895.1856.47728,0,.66282l-.875.87498-.4508-.21203-.2188-.4442Z" fill="#20286d"></path><path d="M0.41271,13.6007L9.68727,4.30005v-3.10234c0-.13257.04639-.245237.13916-.338127l.73677-.72252c.1061-.10607.2586-.152459.411-.13256.0995.0199.1857.06628.252.13256.0331.03308.0663.07947.0862.12586L12.5719,2.835L10.802,4.60498c-.1858.18566-.1857.47728,0,.66295.1789.17895.4772.18554.6628,0l1.7766-1.77657l2.4925,1.19321c.1391.07299.2386.19884.2585.35131.0265.14587-.0199.29833-.1325.411l-.716.71592c-.0927.09277-.2055.14954-.3381.14954h-3.1288L2.40131,15.5894c-.55016.5502-1.445033.5436-1.9886,0-.55028-.5501-.55028-1.4384,0-1.9887Z" fill="#20286d"></path><path d="M8.30992,12.992c-.18323-.1832-.18323-.4797,0-.6629l.22265-.2226-1.09507-.249l3.0274-3.02742l5.3038,3.17012c.1233.0735.2068.2007.2248.3444.0177.1434-.0314.2871-.1337.3894l-.663.6629c-.1138.114-.2783.1613-.4353.1259l-.8281-.1883-.6518.6519c-.1832.1831-.4796.1831-.6628,0-.1832-.1833-.1832-.4798,0-.663l.2345-.2345-1.0802-.2456-.6459.6459c-.1832.1832-.4797.1832-.6629,0-.1831-.1832-.1831-.4797,0-.663l.2286-.2285-1.08028-.2456-.63976.6399c-.18322.1832-.47972.1832-.66294,0Z" fill="#20286d"></path><path d="M2.01241,3.38014c-.18322-.18322-.18322-.47972,0-.66282l.65172-.65172-.18811-.82823c-.03528-.15698.01196-.321405.12585-.435295l.66295-.66283c.10229-.10241.24597-.151608.3894-.13366.14721.01818.27355.10497.34435.2246L7.15462,5.51181L4.1337,8.53273L3.89152,7.46721l-.22179.22178c-.18322.18323-.47973.18323-.66295,0-.18322-.1831-.18322-.47971,0-.66281l.63926-.63927-.24547-1.0803-.22803.22802c-.18322.18323-.47973.18323-.66295,0s-.18322-.47972,0-.66282l.64549-.6455-.24547-1.08029-.23425.23424c-.18323.18311-.47973.18311-.66295-.00012Z" fill="#20286d"></path></g></g></g><g id="erAzE5BkGQX270_to" transform="translate(369.303653,564.509725)"><g id="erAzE5BkGQX270" transform="translate(-20.5,-26)" opacity="0"><path d="M20.5,52C31.8218,52,41,42.8218,41,31.5s-9.1782-20.5-20.5-20.5-20.5,9.1782-20.5,20.5s9.17816,20.5,20.5,20.5Z" fill="#d9261c" fill-opacity="0.1"></path><path d="M20.5,37c3.0376,0,5.5-2.4624,5.5-5.5s-2.4624-5.5-5.5-5.5-5.5,2.4624-5.5,5.5s2.4624,5.5,5.5,5.5Z" fill="#d9261c" fill-opacity="0.4"></path><path d="M19.6219,32.25l-9.31-16.125C6.17392,8.958,11.3459,0,19.6219,0c8.275,0,13.447,8.958,9.309,16.125L19.6219,32.25Z" fill="#d9261c"></path><path d="M19.6211,16.25c3.0376,0,5.5-2.4624,5.5-5.5s-2.4624-5.5-5.5-5.5-5.5,2.46243-5.5,5.5s2.4624,5.5,5.5,5.5Z" fill="#fff"></path></g></g><g id="erAzE5BkGQX275_to" style="offset-path:path('M650.806119,340.847174C720.316013,301.26429,819.118058,280.892472,890.828553,289.049577');offset-rotate:0deg"><g id="erAzE5BkGQX275_tr" transform="rotate(-28.3758)"><g id="erAzE5BkGQX275" transform="translate(-8.647776,-11.084835)" opacity="0" mask="url(#erAzE5BkGQX284)"><g><path d="M0.070313,3.22948L11.5785,2.92773l.1293,4.93207-11.508164.30176-.129323-4.93208Z" fill="#20286d"></path><path d="M0.226562,9.25684L11.7348,8.95508l.0287,1.09592-11.508198.3018-.02874-1.09596Z" fill="#20286d"></path><path d="M14.3609,4.5l-1.644.04311.1724,6.57609-12.604144.3306.086216,3.2879l1.111618-.029c.10449-1.2349,1.12581-2.2231,2.39296-2.2563.77382-.0203,1.47495.3198,1.94209.8673.4378-.5712,1.12014-.9477,1.89396-.968c1.26714-.0332,2.3388.9001,2.5079,2.1278l2.2232-.0583c.1045-1.2349,1.1258-2.2231,2.393-2.2563s2.3388.9001,2.5079,2.1278l1.6596-.0436-.0718-2.7399-1.644.0431-.0288-1.0961l1.644-.043-.0287-1.09608-4.3841.11496L14.3609,4.5Z" fill="#20286d"></path><path d="M15.457,4.47185l.1006,3.83606l3.288-.08622-.0143-.54801C18.7837,5.86065,17.27,4.42431,15.457,4.47185Z" fill="#20286d"></path><path d="M7.81267,16.1878c.75664-.0199,1.35394-.6493,1.3341-1.406s-.6493-1.3539-1.40595-1.3341-1.35393.6493-1.33409,1.406.6493,1.3539,1.40594,1.3341Z" fill="#20286d"></path><path d="M14.9377,16.0002c.7566-.0198,1.3539-.6493,1.3341-1.4059-.0199-.7567-.6493-1.3539-1.406-1.3341s-1.3539.6493-1.3341,1.4059.6493,1.354,1.406,1.3341Z" fill="#20286d"></path><path d="M3.97673,16.2875c.75664-.0199,1.35394-.6493,1.3341-1.406s-.64931-1.3539-1.40595-1.3341-1.35393.6493-1.33409,1.406.6493,1.3539,1.40594,1.3341Z" fill="#20286d"></path></g><mask id="erAzE5BkGQX284" x="-150%" y="-150%" height="400%" width="400%"><path d="M18.6323,-0.000277L0,0.488281L0.488558,19.1206L19.1209,18.632l-.4886-18.632277Z" transform="translate(0 0.000001)" fill="#fff"></path></mask></g></g></g><g id="erAzE5BkGQX286_to" transform="translate(916.692497,269.306619)"><g id="erAzE5BkGQX286" transform="translate(-20.5,-26)" opacity="0"><path d="M20.5,52C31.8218,52,41,42.8218,41,31.5s-9.1782-20.5-20.5-20.5-20.5,9.1782-20.5,20.5s9.17816,20.5,20.5,20.5Z" fill="#d9261c" fill-opacity="0.1"></path><path d="M20.5,37c3.0376,0,5.5-2.4624,5.5-5.5s-2.4624-5.5-5.5-5.5-5.5,2.4624-5.5,5.5s2.4624,5.5,5.5,5.5Z" fill="#d9261c" fill-opacity="0.4"></path><path d="M19.6219,32.25l-9.31-16.125C6.17392,8.958,11.3459,0,19.6219,0c8.275,0,13.447,8.958,9.309,16.125L19.6219,32.25Z" fill="#d9261c"></path><path d="M19.6211,16.25c3.0376,0,5.5-2.4624,5.5-5.5s-2.4624-5.5-5.5-5.5-5.5,2.46243-5.5,5.5s2.4624,5.5,5.5,5.5Z" fill="#fff"></path></g></g><g id="erAzE5BkGQX291_to" style="offset-path:path('M693.178126,497.337981C748.859522,565.483598,905.049366,536.80221,928.192447,427.893993');offset-rotate:0deg"><g id="erAzE5BkGQX291_tr" transform="rotate(32.646825)"><g id="erAzE5BkGQX291" transform="translate(-9.000049,-9.181599)" opacity="0" mask="url(#erAzE5BkGQX302)"><g><path d="M9.52737,4.78125c0-.29127-.23621-.5625-.52735-.5625h-3.19923c-.29128,0-.52735.27123-.52735.5625v2.63674h4.25393v-2.63674Z" fill="#20286d"></path><path d="M14.8006,4.78125c0-.29127-.236-.5625-.5273-.5625h-3.164c-.2912,0-.5273.27123-.5273.5625v2.63674h4.2186v-2.63674Z" fill="#20286d"></path><path d="M2.10939,1.58204c0-.29128-.23607-.52735-.52735-.52735v-.52734C1.58204,0.2358,1.34611,0,1.05469,0c-.291548,0-.527343.2358-.527343.52735v.52734C0.23607,1.05469,0,1.29076,0,1.58204v.52735h2.10939v-.52735Z" fill="#20286d"></path><path d="M2.10939,4.21876h1.58204c.29141,0,.52734-.23594.52734-.52735c0-.29155-.23593-.52735-.52734-.52735h-3.69143v2.14455h2.10939v-1.08985Z" fill="#20286d"></path><path d="M2.10939,9c0-.87244.70958-1.58203,1.58204-1.58203h.52734v-1.05469h-4.21877v6.32802h2.10939v-3.6913Z" fill="#20286d"></path><path d="M17.4727,8.47266h-3.7266v2.10934h3.7266c.1828,0,.359.0396.5274.0996v-1.6816c0-.29141-.2361-.52734-.5274-.52734Z" fill="#20286d"></path><path d="M10.0547,10.582h2.6366v-2.10934h-4.21864v3.03624l.46349-.4635c.29869-.2987.69626-.4634,1.11855-.4634Z" fill="#20286d"></path><path d="M3.16406,9v3.6913h4.12622l.12771-.1277v-4.09094h-3.72658c-.29128,0-.52735.23593-.52735.52734Z" fill="#20286d"></path><path d="M17.4618,16.1796c-.3435.0073-.7077.1128-.9867.2972c1.2867-1.894,1.4915-3.7668,1.5198-3.8758.021-.151-.0238-.3045-.1242-.4199-.0999-.1148-.2451-.1811-.3981-.1811h-7.4179c-.14003,0-.27393.0555-.3728.1545L7.727,14.1092h-7.199653c-.291552,0-.527347.236-.527347.5274v2.0704c0,.1417.057129.2777.158067.3765.101487.0989.221513.1493.380129.1508.221376-.0138.487654.1144.631304.3296.33371.5006.89196.7993,1.49346.7993s1.15976-.2987,1.49347-.7993c.27905-.4191.95265-.4191,1.23185,0c.33371.5006.92711.7993,1.52862.7993s1.15975-.2987,1.49332-.7993c.27919-.4191.9528-.4191,1.23185,0c.33371.5006.89193.7993,1.49343.7993s1.1598-.2987,1.4935-.7993c.279-.4191.9528-.4191,1.2318,0c.3338.5006.892.7993,1.4935.7993s1.1949-.2987,1.5286-.7993c.1364-.2043.3553-.3244.6004-.3296.2916-.0062.5227-.2472.5165-.538-.0061-.291-.229-.5114-.538-.5167Zm-5.2978-1.543c-.2911,0-.5272-.2361-.5272-.5274s.2361-.5273.5272-.5273c.2913,0,.5273.2361.5273.5273s-.236.5274-.5273.5274Zm2.1094,0c-.2912,0-.5274-.2361-.5274-.5274s.2362-.5273.5274-.5273.5273.2361.5273.5273-.236.5274-.5273.5274Z" fill="#20286d"></path></g><mask id="erAzE5BkGQX302" x="-150%" y="-150%" height="400%" width="400%"><path d="M18,0L0,0v18h18v-18Z" fill="#fff"></path></mask></g></g></g><g id="erAzE5BkGQX304_to" transform="translate(683.987277,474.799441)"><g id="erAzE5BkGQX304" transform="translate(-20.5,-28)" opacity="0"><path d="M20.5,56C31.8218,56,41,46.8218,41,35.5s-9.1782-20.5-20.5-20.5-20.5,9.1782-20.5,20.5s9.17816,20.5,20.5,20.5Z" fill="#20286d" fill-opacity="0.1"></path><path d="M20.5,41c3.0376,0,5.5-2.4624,5.5-5.5s-2.4624-5.5-5.5-5.5-5.5,2.4624-5.5,5.5s2.4624,5.5,5.5,5.5Z" fill="#20286d" fill-opacity="0.4"></path><path d="M20.6219,32.25l-9.31-16.125C7.17392,8.958,12.3459,0,20.6219,0c8.275,0,13.447,8.958,9.309,16.125L20.6219,32.25Z" fill="#20286d"></path><path d="M20.6211,16.25c3.0376,0,5.5-2.4624,5.5-5.5s-2.4624-5.5-5.5-5.5-5.5,2.46243-5.5,5.5s2.4624,5.5,5.5,5.5Z" fill="#fff"></path></g></g><g id="erAzE5BkGQX309_to" transform="translate(920.439761,402.602028)"><g id="erAzE5BkGQX309" transform="translate(-20.5,-26)" opacity="0"><path d="M20.5,52C31.8218,52,41,42.8218,41,31.5s-9.1782-20.5-20.5-20.5-20.5,9.1782-20.5,20.5s9.17816,20.5,20.5,20.5Z" fill="#d9261c" fill-opacity="0.1"></path><path d="M20.5,37c3.0376,0,5.5-2.4624,5.5-5.5s-2.4624-5.5-5.5-5.5-5.5,2.4624-5.5,5.5s2.4624,5.5,5.5,5.5Z" fill="#d9261c" fill-opacity="0.4"></path><path d="M19.6219,32.25l-9.31-16.125C6.17392,8.958,11.3459,0,19.6219,0c8.275,0,13.447,8.958,9.309,16.125L19.6219,32.25Z" fill="#d9261c"></path><path d="M19.6211,16.25c3.0376,0,5.5-2.4624,5.5-5.5s-2.4624-5.5-5.5-5.5-5.5,2.46243-5.5,5.5s2.4624,5.5,5.5,5.5Z" fill="#fff"></path></g></g><path id="erAzE5BkGQX314" d="M0.5,153C37.5,76,123,9.5,200.5,1" transform="translate(403.325905 356.924085)" opacity="0" fill="none" stroke="#20286d" stroke-dasharray="2,2"></path><path id="erAzE5BkGQX315" d="M1,64.9993C70.5,7.49862,211,-10.5017,269,7.49981" transform="matrix(.903668-.017379 0.016562 0.861198 643.39754 296.733999)" opacity="0" fill="none" stroke="#20286d" stroke-dasharray="2,2"></path><path id="erAzE5BkGQX316" d="M461.491,0.498577C387.001,252.998,92.2182,240.074,0.499239,141.5" transform="matrix(.483125 0 0 0.530987 696.603159 429.342157)" opacity="0" fill="none" stroke="#20286d" stroke-dasharray="2,2"></path></svg> 