<svg width="70" height="70" viewBox="0 0 70 70" fill="none" xmlns="http://www.w3.org/2000/svg">
<rect width="70" height="70" rx="16" fill="white"/>
<g clip-path="url(#clip0_2588_1003)">
<mask id="mask0_2588_1003" style="mask-type:luminance" maskUnits="userSpaceOnUse" x="10" y="10" width="50" height="50">
<path d="M60 10H10V60H60V10Z" fill="white"/>
</mask>
<g mask="url(#mask0_2588_1003)">
<path fill-rule="evenodd" clip-rule="evenodd" d="M46.1115 16.9453H23.8893C21.589 16.9453 19.7227 18.8116 19.7227 21.112V48.8898C19.7227 51.1902 21.589 53.0564 23.8893 53.0564H46.1115C48.4118 53.0564 50.2782 51.1902 50.2782 48.8898V21.112C50.2782 18.8116 48.4118 16.9453 46.1115 16.9453ZM23.8893 19.7231H46.1115C46.8779 19.7231 47.5004 20.3457 47.5004 21.112V48.8898C47.5004 49.656 46.8779 50.2786 46.1115 50.2786H23.8893C23.123 50.2786 22.5004 49.656 22.5004 48.8898V21.112C22.5004 20.3457 23.123 19.7231 23.8893 19.7231ZM43.3338 28.0564V25.2786H26.6671V28.0564H43.3338ZM43.3338 32.2231V35.0009H26.6671V32.2231H43.3338ZM32.2227 39.1675V41.9453H26.6671V39.1675H32.2227ZM35.0708 41.777C35.6132 41.2346 36.4925 41.2346 37.0352 41.777L38.0165 42.7586L40.9624 39.8118C41.5046 39.2693 42.384 39.2692 42.9265 39.8116C43.469 40.3538 43.4692 41.2332 42.9268 41.7757L38.999 45.7049C38.4567 46.2474 37.5771 46.2475 37.0347 45.705L35.0708 43.7411C34.5285 43.1988 34.5285 42.3193 35.0708 41.777Z" fill="#0D0D0E"/>
</g>
</g>
<defs>
<clipPath id="clip0_2588_1003">
<rect width="50" height="50" fill="white" transform="translate(10 10)"/>
</clipPath>
</defs>
</svg>
