<svg viewBox="0 0 442 78" fill="none" xmlns="http://www.w3.org/2000/svg">
<path d="M56.01 22.2302C73.2333 22.2302 76.4023 29.44 77.1946 32.0199C77.298 32.3734 77.6424 32.6208 77.9869 32.6208H110.47C110.918 32.6208 111.297 32.232 111.297 31.7725V31.2071C111.262 20.8165 105.062 0 58.2835 0H54.6321C6.30371 0 0 22.1242 0 37.2859V40.3253C0 55.275 6.78596 78 54.6321 78H58.2835C68.893 78 77.6769 75.3493 84.6006 71.4971C85.1517 71.179 85.8407 71.6031 85.8407 72.2746V75.7381C85.8407 76.1976 86.2196 76.5863 86.6674 76.5863H110.229C110.677 76.5863 111.056 76.1976 111.056 75.7381V35.3068H63.0371C62.5893 35.3068 62.2104 35.6955 62.2104 36.155V47.5351C62.2104 47.9946 62.5893 48.3833 63.0371 48.3833H74.0255C74.7489 48.3833 75.1623 49.2669 74.6456 49.8324C71.9932 52.6951 66.7229 55.5931 56.0789 55.5931C38.1667 55.5931 34.2054 46.2981 34.2054 39.1237V37.9221C34.2054 30.5356 37.7534 22.2655 55.9756 22.2655L56.01 22.2302Z" fill="white"/>
<path d="M441.673 75.314L406.538 1.87313C406.4 1.59039 406.124 1.41368 405.814 1.41368H362.859C362.549 1.41368 362.274 1.59039 362.136 1.90847L331.72 69.5886V35.2714H285.389C284.941 35.2714 284.562 35.6602 284.562 36.1196V47.4998C284.562 47.9592 284.941 48.348 285.389 48.348H295.999C296.688 48.348 297.101 49.2315 296.619 49.797C294.07 52.6597 288.972 55.5578 278.707 55.5578C261.414 55.5578 257.625 46.2628 257.625 39.0884V37.8867C257.625 30.5002 261.035 22.2302 278.638 22.2302C295.241 22.2302 298.341 29.44 299.099 32.0199C299.202 32.3734 299.512 32.6208 299.857 32.6208H331.203C331.651 32.6208 332.03 32.232 332.03 31.7725V31.2071C331.926 20.8165 325.933 0 280.808 0H277.294C230.654 0 224.557 22.1242 224.557 37.2859V40.3253C224.557 55.275 231.101 78 277.294 78H280.808C291.073 78 299.547 75.3493 306.195 71.4971C306.746 71.179 307.4 71.6031 307.4 72.2746V75.7381C307.4 76.1976 307.779 76.5863 308.227 76.5863H360.31C360.62 76.5863 360.93 76.3743 361.034 76.0915L364.961 66.7259C365.098 66.4078 365.374 66.2311 365.684 66.2311H402.094C402.404 66.2311 402.68 66.4431 402.817 66.7259L406.813 76.1269C406.951 76.445 407.226 76.6217 407.536 76.6217H440.984C441.57 76.6217 441.983 75.9502 441.707 75.3493L441.673 75.314ZM392.311 45.4499H375.019C374.433 45.4499 374.055 44.8138 374.296 44.213L382.873 23.9973C383.148 23.3258 384.044 23.3258 384.354 23.9973L393.103 44.213C393.345 44.7784 392.966 45.4499 392.38 45.4499H392.311Z" fill="white"/>
<path d="M222.589 22.6924V2.26471C222.589 1.80527 222.21 1.4165 221.763 1.4165H115.702C115.254 1.4165 114.875 1.80527 114.875 2.26471V22.6924C114.875 23.1519 115.254 23.5407 115.702 23.5407H151.561C152.008 23.5407 152.387 23.9294 152.387 24.3889V53.5814C152.387 54.0409 152.008 54.4296 151.561 54.4296H115.702C115.254 54.4296 114.875 54.8184 114.875 55.2779V75.6702C114.875 76.1297 115.254 76.5184 115.702 76.5184H221.763C222.21 76.5184 222.589 76.1297 222.589 75.6702V55.2779C222.589 54.8184 222.21 54.4296 221.763 54.4296H186.317C185.869 54.4296 185.49 54.0409 185.49 53.5814V24.4242C185.49 23.9648 185.869 23.576 186.317 23.576H221.763C222.21 23.576 222.589 23.1872 222.589 22.7278V22.6924Z" fill="white"/>
</svg>
