<svg viewBox="0 0 560 46" fill="none" xmlns="http://www.w3.org/2000/svg">
<path d="M33.4866 13.1101C43.6439 13.1101 45.5129 17.362 45.9801 18.8836C46.0411 19.092 46.2442 19.2379 46.4473 19.2379H65.604C65.8681 19.2379 66.0916 19.0086 66.0916 18.7377V18.4042C66.0713 12.2764 62.4146 0 34.8274 0H32.674C4.17265 0 0.455078 13.0476 0.455078 21.9891V23.7816C0.455078 32.5981 4.45705 46 32.674 46H34.8274C41.0843 46 46.2645 44.4368 50.3478 42.1649C50.6728 41.9773 51.0791 42.2275 51.0791 42.6235V44.6661C51.0791 44.937 51.3025 45.1663 51.5666 45.1663H65.4618C65.7259 45.1663 65.9494 44.937 65.9494 44.6661V20.8219H37.6308C37.3667 20.8219 37.1433 21.0512 37.1433 21.3222V28.0335C37.1433 28.3045 37.3667 28.5338 37.6308 28.5338H44.1112C44.5378 28.5338 44.7816 29.0548 44.4768 29.3883C42.9126 31.0766 39.8045 32.7857 33.5273 32.7857C22.9637 32.7857 20.6275 27.304 20.6275 23.073V22.3643C20.6275 18.0082 22.7199 13.1309 33.4663 13.1309L33.4866 13.1101Z" fill="white"/>
<path d="M260.929 44.416L240.208 1.10467C240.127 0.937925 239.964 0.833711 239.781 0.833711H214.449C214.266 0.833711 214.104 0.937925 214.022 1.12551L196.084 41.0394V20.8011H168.761C168.497 20.8011 168.274 21.0304 168.274 21.3013V28.0127C168.274 28.2836 168.497 28.5129 168.761 28.5129H175.018C175.425 28.5129 175.668 29.034 175.384 29.3675C173.881 31.0557 170.874 32.7648 164.82 32.7648C154.622 32.7648 152.388 27.2832 152.388 23.0521V22.3435C152.388 17.9873 154.399 13.1101 164.78 13.1101C174.571 13.1101 176.4 17.362 176.847 18.8836C176.908 19.092 177.09 19.2379 177.293 19.2379H195.78C196.044 19.2379 196.267 19.0086 196.267 18.7377V18.4042C196.206 12.2764 192.672 0 166.059 0H163.987C136.481 0 132.886 13.0476 132.886 21.9891V23.7816C132.886 32.5981 136.746 46 163.987 46H166.059C172.113 46 177.111 44.4368 181.031 42.1649C181.356 41.9773 181.742 42.2275 181.742 42.6235V44.6661C181.742 44.937 181.966 45.1663 182.23 45.1663H212.946C213.128 45.1663 213.311 45.0412 213.372 44.8745L215.688 39.3512C215.769 39.1636 215.932 39.0594 216.115 39.0594H237.587C237.77 39.0594 237.933 39.1844 238.014 39.3512L240.37 44.8953C240.452 45.0829 240.614 45.1871 240.797 45.1871H260.522C260.868 45.1871 261.112 44.7911 260.949 44.4368L260.929 44.416ZM231.818 26.8038H221.62C221.275 26.8038 221.051 26.4286 221.193 26.0743L226.252 14.1522C226.414 13.7562 226.942 13.7562 227.125 14.1522L232.285 26.0743C232.427 26.4078 232.204 26.8038 231.859 26.8038H231.818Z" fill="white"/>
<path d="M131.725 13.3835V1.33641C131.725 1.06545 131.501 0.836182 131.237 0.836182H68.6887C68.4246 0.836182 68.2012 1.06545 68.2012 1.33641V13.3835C68.2012 13.6545 68.4246 13.8838 68.6887 13.8838H89.8362C90.1003 13.8838 90.3238 14.113 90.3238 14.384V31.6001C90.3238 31.8711 90.1003 32.1003 89.8362 32.1003H68.6887C68.4246 32.1003 68.2012 32.3296 68.2012 32.6006V44.6268C68.2012 44.8978 68.4246 45.1271 68.6887 45.1271H131.237C131.501 45.1271 131.725 44.8978 131.725 44.6268V32.6006C131.725 32.3296 131.501 32.1003 131.237 32.1003H110.334C110.07 32.1003 109.846 31.8711 109.846 31.6001V14.4048C109.846 14.1339 110.07 13.9046 110.334 13.9046H131.237C131.501 13.9046 131.725 13.6753 131.725 13.4044V13.3835Z" fill="white"/>
<path d="M558.977 30.8265H540.49C540.206 30.8265 539.962 30.5764 539.962 30.2846V1.50068C539.962 1.20888 539.718 0.958766 539.434 0.958766H520.948C520.663 0.958766 520.419 1.20888 520.419 1.50068V41.623L501.039 1.10466C500.958 0.937922 500.796 0.83371 500.613 0.83371H475.28C475.098 0.83371 474.935 0.937923 474.854 1.12551L456.916 41.0394V20.8011H429.593C429.329 20.8011 429.105 21.0304 429.105 21.3013V28.0127C429.105 28.2836 429.329 28.5129 429.593 28.5129H435.85C436.256 28.5129 436.5 29.034 436.215 29.3675C434.712 31.0557 431.706 32.7648 425.652 32.7648C415.454 32.7648 413.219 27.2832 413.219 23.0521V22.3435C413.219 17.9873 415.23 13.1101 425.611 13.1101C435.403 13.1101 437.231 17.362 437.678 18.8836C437.739 19.092 437.922 19.2379 438.125 19.2379H456.611C456.875 19.2379 457.099 19.0086 457.099 18.7377V18.4042C457.038 12.2764 453.503 0 426.891 0H424.819C397.313 0 393.717 13.0476 393.717 21.9891V23.7816C393.717 32.5981 397.577 46 424.819 46H426.891C432.945 46 437.942 44.4368 441.863 42.1649C442.188 41.9773 442.574 42.2275 442.574 42.6235V44.6661C442.574 44.937 442.797 45.1663 443.061 45.1663H473.777C473.96 45.1663 474.143 45.0412 474.204 44.8745L476.52 39.3512C476.601 39.1636 476.763 39.0594 476.946 39.0594H498.419C498.602 39.0594 498.764 39.1844 498.845 39.3512L501.202 44.8953C501.283 45.0829 501.446 45.1871 501.628 45.1871H520.704C520.704 45.1871 520.866 45.2705 520.988 45.2705H559.017C559.302 45.2705 559.545 45.0204 559.545 44.7286V31.4101C559.545 31.1183 559.302 30.8681 559.017 30.8681L558.977 30.8265ZM492.649 26.783H482.451C482.106 26.783 481.883 26.4078 482.025 26.0535L487.083 14.1314C487.246 13.7354 487.774 13.7354 487.957 14.1314L493.117 26.0535C493.259 26.3869 493.035 26.783 492.69 26.783H492.649Z" fill="white"/>
<path d="M392.514 1.54756V12.094C392.514 12.4066 392.25 12.6776 391.945 12.6776H348.837C348.533 12.6776 348.269 12.9486 348.269 13.2612V16.4293C348.269 16.7419 348.533 17.0129 348.837 17.0129H391.478C391.783 17.0129 392.047 17.2839 392.047 17.5965V27.9762C392.047 28.2888 391.783 28.5598 391.478 28.5598H348.837C348.533 28.5598 348.269 28.8307 348.269 29.1434V32.7909C348.269 33.1035 348.533 33.3745 348.837 33.3745H392.229C392.534 33.3745 392.798 33.6454 392.798 33.9581V44.6296C392.798 44.9422 392.534 45.2132 392.229 45.2132H329.6C329.295 45.2132 329.031 44.9422 329.031 44.6296V1.52671C329.031 1.21407 329.295 0.943115 329.6 0.943115H391.945C392.25 0.943115 392.514 1.21407 392.514 1.52671V1.54756Z" fill="white"/>
<path d="M283.002 1.50587V30.2689C283.002 30.5815 283.246 30.8108 283.53 30.8108H326.211C326.516 30.8108 326.74 31.0609 326.74 31.3527V44.6504C326.74 44.9631 326.496 45.1923 326.211 45.1923H264.008C263.703 45.1923 263.48 44.9422 263.48 44.6504V1.48503C263.48 1.17239 263.724 0.943115 264.008 0.943115H282.474C282.779 0.943115 283.002 1.19323 283.002 1.48503V1.50587Z" fill="white"/>
</svg>
